<?xml version="1.0" encoding="UTF-8" standalone="no"?>
<svg xmlns:rdf="http://www.w3.org/1999/02/22-rdf-syntax-ns#" xmlns="http://www.w3.org/2000/svg" version="1.1" xmlns:cc="http://creativecommons.org/ns#" xmlns:dc="http://purl.org/dc/elements/1.1/" viewBox="0 0 32 32">
 <metadata>
  <rdf:RDF>
   <cc:Work rdf:about="">
    <dc:format>image/svg+xml</dc:format>
    <dc:type rdf:resource="http://purl.org/dc/dcmitype/StillImage"/>
    <dc:title/>
   </cc:Work>
  </rdf:RDF>
 </metadata>
 <path fill="#f00" d="m16.17 3.458c-6.724 0-12.17 5.582-12.17 12.47 0 6.89 5.446 12.48 12.17 12.48s12.17-5.582 12.17-12.47c0-6.9-5.45-12.48-12.17-12.48zm-9.736 12.47c0-5.514 4.357-9.98 9.736-9.98 2.251 0 4.314 0.7921 5.963 2.102l-13.65 13.99c-1.273-1.69-2.046-3.8-2.046-6.11zm9.736 9.98c-2.251 0-4.314-0.7921-5.963-2.102l13.64-13.99c1.278 1.69 2.051 3.805 2.051 6.113 0 5.514-4.357 9.98-9.736 9.98z"/>
</svg>
