<?xml version="1.0" encoding="UTF-8" standalone="no"?>
<svg
   xmlns:dc="http://purl.org/dc/elements/1.1/"
   xmlns:cc="http://creativecommons.org/ns#"
   xmlns:rdf="http://www.w3.org/1999/02/22-rdf-syntax-ns#"
   xmlns:svg="http://www.w3.org/2000/svg"
   xmlns="http://www.w3.org/2000/svg"
   xmlns:sodipodi="http://sodipodi.sourceforge.net/DTD/sodipodi-0.dtd"
   xmlns:inkscape="http://www.inkscape.org/namespaces/inkscape"
   version="1.1"
   viewBox="0 0 32 32"
   id="svg2"
   inkscape:version="0.91 r13725"
   sodipodi:docname="price_32px.svg">
  <metadata
     id="metadata14">
    <rdf:RDF>
      <cc:Work
         rdf:about="">
        <dc:format>image/svg+xml</dc:format>
        <dc:type
           rdf:resource="http://purl.org/dc/dcmitype/StillImage" />
        <dc:title></dc:title>
      </cc:Work>
    </rdf:RDF>
  </metadata>
  <defs
     id="defs12" />
  <sodipodi:namedview
     pagecolor="#ffffff"
     bordercolor="#666666"
     borderopacity="1"
     objecttolerance="10"
     gridtolerance="10"
     guidetolerance="10"
     inkscape:pageopacity="0"
     inkscape:pageshadow="2"
     inkscape:window-width="1920"
     inkscape:window-height="1030"
     id="namedview10"
     showgrid="false"
     inkscape:zoom="7.375"
     inkscape:cx="-7.1186445"
     inkscape:cy="16.695578"
     inkscape:window-x="0"
     inkscape:window-y="27"
     inkscape:window-maximized="1"
     inkscape:current-layer="svg2" />
  <g
     transform="scale(1.1818251,0.84614889)"
     style="font-style:normal;font-variant:normal;font-weight:normal;font-stretch:normal;font-size:37.85089874px;line-height:125%;font-family:'Lucida MAC';-inkscape-font-specification:'Lucida MAC';letter-spacing:0px;word-spacing:0px;fill:#008000;fill-opacity:1;stroke:none;stroke-width:1px;stroke-linecap:butt;stroke-linejoin:miter;stroke-opacity:1"
     id="text4237">
    <path
       d="m 13.541482,34.710009 0,-2.25479 q -3.178884,0 -7.2818622,-1.552478 l 0,-3.14192 Q 10.399562,29.7199 13.541482,29.7199 l 0,-9.832362 Q 10.325634,17.928458 9.10583,16.634726 7.0358589,14.379937 7.0358589,11.681581 q 0,-2.8462097 1.8851522,-4.6204706 1.7372969,-1.7372971 4.6204709,-1.9590797 l 0,-2.2917536 1.811225,0 0,2.2917536 q 2.883174,0 5.951167,1.2198044 l 0,2.9940652 Q 17.792316,7.8003858 15.352707,7.5786032 l 0,9.7584348 q 0.29571,0.147855 1.515514,0.924094 2.476573,1.515515 3.437631,2.587464 1.441587,1.589442 1.441587,3.918159 0,2.994066 -1.737297,4.990109 -1.774261,2.106935 -4.657435,2.698355 l 0,2.25479 -1.811225,0 z m 1.811225,-5.211891 q 3.215848,-1.108913 3.215848,-4.176906 0,-1.478551 -0.961058,-2.5505 -0.554457,-0.665348 -2.25479,-1.774261 l 0,8.501667 z m -1.811225,-13.343921 0,-8.4647025 q -3.289775,0.9980217 -3.289775,3.9181595 0,1.441587 0.998022,2.735319 0.665347,0.776239 2.291753,1.811224 z"
       style=""
       id="path4135" />
  </g>
</svg>
